<svg xmlns="http://www.w3.org/2000/svg" width="195" height="195" viewBox="0 0 195 195">
  <g id="Group_7" data-name="Group 7" transform="translate(-5 -3)">
    <g id="Path_6" data-name="Path 6" transform="translate(5 3)" fill="#b2dcc0">
      <path d="M 97.5 193.5 C 90.98554992675781 193.5 84.47562408447266 192.8437957763672 78.15107727050781 191.5496063232422 C 71.98799896240234 190.2884521484375 65.92582702636719 188.4066467285156 60.1329231262207 185.9564514160156 C 54.44487380981445 183.5505981445312 48.95859909057617 180.57275390625 43.8265495300293 177.1056060791016 C 38.74285125732422 173.6711273193359 33.96232604980469 169.7268218994141 29.61775016784668 165.3822479248047 C 25.27317428588867 161.0376739501953 21.3288745880127 156.2571563720703 17.89439964294434 151.1734771728516 C 14.42724990844727 146.0413970947266 11.44939994812012 140.5551452636719 9.043549537658691 134.8670806884766 C 6.593349933624268 129.0741729736328 4.711550235748291 123.0120010375977 3.450400114059448 116.8489532470703 C 2.156199932098389 110.5243759155273 1.5 104.0144500732422 1.5 97.5 C 1.5 90.98554992675781 2.156199932098389 84.47562408447266 3.450400114059448 78.15107727050781 C 4.711550235748291 71.98799896240234 6.593349933624268 65.92582702636719 9.043549537658691 60.1329231262207 C 11.44939994812012 54.44487380981445 14.42724990844727 48.95859909057617 17.89439964294434 43.8265495300293 C 21.3288745880127 38.74285125732422 25.27317428588867 33.96232604980469 29.61775016784668 29.61775016784668 C 33.96232604980469 25.27317428588867 38.74285125732422 21.3288745880127 43.8265495300293 17.89439964294434 C 48.95859909057617 14.42724990844727 54.44487380981445 11.44939994812012 60.1329231262207 9.043549537658691 C 65.92582702636719 6.593349933624268 71.98799896240234 4.711550235748291 78.15107727050781 3.450400114059448 C 84.47562408447266 2.156199932098389 90.98554992675781 1.5 97.5 1.5 C 104.0144500732422 1.5 110.5243759155273 2.156199932098389 116.8489532470703 3.450400114059448 C 123.0120010375977 4.711550235748291 129.0741729736328 6.593349933624268 134.8670806884766 9.043549537658691 C 140.5551452636719 11.44939994812012 146.0413970947266 14.42724990844727 151.1734771728516 17.89439964294434 C 156.2571563720703 21.3288745880127 161.0376739501953 25.27317428588867 165.3822479248047 29.61775016784668 C 169.7268218994141 33.96232604980469 173.6711273193359 38.74285125732422 177.1056060791016 43.8265495300293 C 180.57275390625 48.95859909057617 183.5505981445312 54.44487380981445 185.9564514160156 60.1329231262207 C 188.4066467285156 65.92582702636719 190.2884521484375 71.98799896240234 191.5496063232422 78.15107727050781 C 192.8437957763672 84.47562408447266 193.5 90.98554992675781 193.5 97.5 C 193.5 104.0144500732422 192.8437957763672 110.5243759155273 191.5496063232422 116.8489532470703 C 190.2884521484375 123.0120010375977 188.4066467285156 129.0741729736328 185.9564514160156 134.8670806884766 C 183.5505981445312 140.5551452636719 180.57275390625 146.0413970947266 177.1056060791016 151.1734771728516 C 173.6711273193359 156.2571563720703 169.7268218994141 161.0376739501953 165.3822479248047 165.3822479248047 C 161.0376739501953 169.7268218994141 156.2571563720703 173.6711273193359 151.1734771728516 177.1056060791016 C 146.0413970947266 180.57275390625 140.5551452636719 183.5505981445312 134.8670806884766 185.9564514160156 C 129.0741729736328 188.4066467285156 123.0120010375977 190.2884521484375 116.8489532470703 191.5496063232422 C 110.5243759155273 192.8437957763672 104.0144500732422 193.5 97.5 193.5 Z" stroke="none"/>
      <path d="M 97.5 3 C 91.08633422851562 3 84.67758178710938 3.645965576171875 78.45177459716797 4.919937133789062 C 72.38571929931641 6.1612548828125 66.41897583007812 8.013412475585938 60.71725463867188 10.425048828125 C 55.11839294433594 12.79316711425781 49.71803283691406 15.72441101074219 44.66624450683594 19.1373291015625 C 39.66166687011719 22.51835632324219 34.95547485351562 26.40133666992188 30.67842102050781 30.67842102050781 C 26.40133666992188 34.95547485351562 22.51835632324219 39.66166687011719 19.1373291015625 44.66624450683594 C 15.72441101074219 49.71803283691406 12.79316711425781 55.11839294433594 10.425048828125 60.71725463867188 C 8.013412475585938 66.41897583007812 6.1612548828125 72.38571929931641 4.919937133789062 78.45177459716797 C 3.645965576171875 84.67758178710938 3 91.08633422851562 3 97.5 C 3 103.9136657714844 3.645965576171875 110.3224182128906 4.919937133789062 116.548225402832 C 6.1612548828125 122.6142807006836 8.013412475585938 128.5810241699219 10.425048828125 134.2827453613281 C 12.79316711425781 139.8816070556641 15.72441101074219 145.2819519042969 19.1373291015625 150.3337554931641 C 22.51835632324219 155.3383331298828 26.40133666992188 160.0445251464844 30.67842102050781 164.3215789794922 C 34.95547485351562 168.5986328125 39.66166687011719 172.4816436767578 44.66624450683594 175.8626708984375 C 49.71803283691406 179.2755889892578 55.11839294433594 182.2068328857422 60.71725463867188 184.574951171875 C 66.41897583007812 186.9865875244141 72.38571929931641 188.8387451171875 78.45177459716797 190.0800628662109 C 84.67758178710938 191.3540344238281 91.08633422851562 192 97.5 192 C 103.9136657714844 192 110.3224182128906 191.3540344238281 116.548225402832 190.0800628662109 C 122.6142807006836 188.8387451171875 128.5810241699219 186.9865875244141 134.2827453613281 184.574951171875 C 139.8816070556641 182.2068328857422 145.2819519042969 179.2755889892578 150.3337554931641 175.8626708984375 C 155.3383331298828 172.4816436767578 160.0445251464844 168.5986328125 164.3215789794922 164.3215789794922 C 168.5986328125 160.0445251464844 172.4816436767578 155.3383331298828 175.8626708984375 150.3337554931641 C 179.2755889892578 145.2819519042969 182.2068328857422 139.8816070556641 184.574951171875 134.2827453613281 C 186.9865875244141 128.5810241699219 188.8387451171875 122.6142807006836 190.0800628662109 116.548225402832 C 191.3540344238281 110.3224182128906 192 103.9136657714844 192 97.5 C 192 91.08633422851562 191.3540344238281 84.67758178710938 190.0800628662109 78.45177459716797 C 188.8387451171875 72.38571929931641 186.9865875244141 66.41897583007812 184.574951171875 60.71725463867188 C 182.2068328857422 55.11839294433594 179.2755889892578 49.71803283691406 175.8626708984375 44.66624450683594 C 172.4816436767578 39.66166687011719 168.5986328125 34.95547485351562 164.3215789794922 30.67842102050781 C 160.0445251464844 26.40133666992188 155.3383331298828 22.51835632324219 150.3337554931641 19.1373291015625 C 145.2819519042969 15.72441101074219 139.8816070556641 12.79316711425781 134.2827453613281 10.425048828125 C 128.5810241699219 8.013412475585938 122.6142807006836 6.1612548828125 116.548225402832 4.919937133789062 C 110.3224182128906 3.645965576171875 103.9136657714844 3 97.5 3 M 97.5 0 C 151.3477478027344 0 195 43.6522216796875 195 97.5 C 195 151.3477478027344 151.3477478027344 195 97.5 195 C 43.6522216796875 195 0 151.3477478027344 0 97.5 C 0 43.6522216796875 43.6522216796875 0 97.5 0 Z" stroke="none" fill="#b2dcc0"/>
    </g>
    <path id="Union_2" data-name="Union 2" d="M-771.05,57.526V14.864h8.1V57.526ZM-776,14.864l4.639-3.421A9,9,0,0,1-779,2.545V-20a9,9,0,0,1,9-9h6a9,9,0,0,1,9,9V2.545a9,9,0,0,1-7.638,8.9L-758,14.864Z" transform="translate(867 139.474)" fill="#a9a9a9" stroke="#707070" stroke-width="1"/>
    <rect id="Rectangle_6" data-name="Rectangle 6" width="2.5" height="29.273" rx="1.25" transform="translate(93.45 110.474)" fill="#b2dcc0" stroke="#707070" stroke-width="1"/>
    <rect id="Rectangle_7" data-name="Rectangle 7" width="2.5" height="29.273" rx="1.25" transform="translate(104.05 110.474)" fill="#b2dcc0" stroke="#707070" stroke-width="1"/>
    <rect id="Rectangle_8" data-name="Rectangle 8" width="2.5" height="29.273" rx="1.25" transform="translate(98.75 110.474)" fill="#b2dcc0" stroke="#707070" stroke-width="1"/>
    <path id="Path_5" data-name="Path 5" d="M813.75,129c61.683,29.77,119.413,0,119.413,0" transform="translate(-773.456 -33)" fill="#b2dcc0" stroke="#006321" stroke-linecap="round" stroke-width="25"/>
    <g id="Polygon_12" data-name="Polygon 12" transform="matrix(-0.966, -0.259, 0.259, -0.966, 57.473, 109.474)" fill="#b2dcc0">
      <path d="M 3.444608926773071 18.5 L 0.5553909540176392 18.5 L 1.99999988079071 4.776215076446533 L 3.444608926773071 18.5 Z" stroke="none"/>
      <path d="M 1.99999988079071 9.552524566650391 L 1.110791921615601 18 L 2.88920783996582 18 L 1.99999988079071 9.552524566650391 M 1.99999988079071 0 L 4 19 L -2.384185791015625e-07 19 L 1.99999988079071 0 Z" stroke="none" fill="#b2dcc0"/>
    </g>
    <g id="Polygon_13" data-name="Polygon 13" transform="translate(146.087 107.013) rotate(166)" fill="#b2dcc0">
      <path d="M 3.444608926773071 18.5 L 0.5553909540176392 18.5 L 1.99999988079071 4.776215076446533 L 3.444608926773071 18.5 Z" stroke="none"/>
      <path d="M 1.99999988079071 9.552524566650391 L 1.110791921615601 18 L 2.88920783996582 18 L 1.99999988079071 9.552524566650391 M 1.99999988079071 0 L 4 19 L -2.384185791015625e-07 19 L 1.99999988079071 0 Z" stroke="none" fill="#b2dcc0"/>
    </g>
    <g id="Polygon_14" data-name="Polygon 14" transform="translate(130.433 108.605) rotate(171)" fill="#b2dcc0">
      <path d="M 3.434489488601685 15.70228004455566 L 0.5655102729797363 15.70228004455566 L 1.99999988079071 4.081278800964355 L 3.434489488601685 15.70228004455566 Z" stroke="none"/>
      <path d="M 1.99999988079071 8.16264820098877 L 1.13103175163269 15.20228004455566 L 2.86896800994873 15.20228004455566 L 1.99999988079071 8.16264820098877 M 1.99999988079071 0 L 4 16.20228004455566 L -2.384185791015625e-07 16.20228004455566 L 1.99999988079071 0 Z" stroke="none" fill="#b2dcc0"/>
    </g>
    <g id="Polygon_15" data-name="Polygon 15" transform="translate(76.802 107.98) rotate(-171)" fill="#b2dcc0">
      <path d="M 4.396432876586914 12.70228004455566 L 0.6035668849945068 12.70228004455566 L 2.5 2.687383651733398 L 4.396432876586914 12.70228004455566 Z" stroke="none"/>
      <path d="M 2.5 5.374757289886475 L 1.207131862640381 12.20228004455566 L 3.792868137359619 12.20228004455566 L 2.5 5.374757289886475 M 2.5 0 L 5 13.20228004455566 L 0 13.20228004455566 L 2.5 0 Z" stroke="none" fill="#b2dcc0"/>
    </g>
    <g id="Polygon_16" data-name="Polygon 16" transform="matrix(-0.998, 0.07, -0.07, -0.998, 111.14, 108.173)" fill="#b2dcc0">
      <path d="M 3.411373138427734 11.70228004455566 L 0.5886266827583313 11.70228004455566 L 1.99999988079071 3.091294527053833 L 3.411373138427734 11.70228004455566 Z" stroke="none"/>
      <path d="M 1.99999988079071 6.182538032531738 L 1.177245140075684 11.20228004455566 L 2.822754621505737 11.20228004455566 L 1.99999988079071 6.182538032531738 M 1.99999988079071 0 L 4 12.20228004455566 L -2.384185791015625e-07 12.20228004455566 L 1.99999988079071 0 Z" stroke="none" fill="#b2dcc0"/>
    </g>
    <g id="Polygon_17" data-name="Polygon 17" transform="translate(92.54 114.387) rotate(-177)" fill="#b2dcc0">
      <path d="M 3.442051410675049 17.70228004455566 L 0.5579484105110168 17.70228004455566 L 1.99999988079071 4.577967643737793 L 3.442051410675049 17.70228004455566 Z" stroke="none"/>
      <path d="M 1.99999988079071 9.155935287475586 L 1.115896940231323 17.20228004455566 L 2.884102821350098 17.20228004455566 L 1.99999988079071 9.155935287475586 M 1.99999988079071 0 L 4 18.20228004455566 L -2.384185791015625e-07 18.20228004455566 L 1.99999988079071 0 Z" stroke="none" fill="#b2dcc0"/>
    </g>
    <g id="Intersection_1" data-name="Intersection 1" transform="matrix(0.966, -0.259, 0.259, 0.966, 773.593, -156.734)" fill="#1e5f34">
      <path d="M -689.0004272460938 69.50009918212891 L -702.9999389648438 69.50009918212891 C -708.6030883789062 69.50009918212891 -714.037841796875 68.40304565429688 -719.1531982421875 66.23941802978516 C -724.0948486328125 64.14927673339844 -728.533203125 61.1567497253418 -732.344970703125 57.34494781494141 C -736.15673828125 53.53315734863281 -739.1492919921875 49.09479904174805 -741.2394409179688 44.15316772460938 C -743.403076171875 39.03777694702148 -744.5001220703125 33.6030387878418 -744.5001220703125 27.99989891052246 L -744.5001220703125 17.37139892578125 C -741.7185668945312 16.79306983947754 -738.8648071289062 16.50029754638672 -736.000244140625 16.50029754638672 L -721.9998168945312 16.50029754638672 C -716.3966674804688 16.50029754638672 -710.9619750976562 17.59734916687012 -705.8465576171875 19.7609691619873 C -700.9049072265625 21.85108757019043 -696.466552734375 24.84358787536621 -692.65478515625 28.65533828735352 C -688.8429565429688 32.46707916259766 -685.8504638671875 36.90534973144531 -683.7603149414062 41.84686660766602 C -681.5966796875 46.96212005615234 -680.4996337890625 52.39668655395508 -680.4996337890625 57.99960708618164 L -680.4996337890625 68.6287841796875 C -683.2818603515625 69.20730590820312 -686.1356811523438 69.50009918212891 -689.0004272460938 69.50009918212891 Z" stroke="none"/>
      <path d="M -689.0004272460938 68.00009918212891 C -686.6468505859375 68.00009918212891 -684.30126953125 67.79520416259766 -681.9996337890625 67.38958740234375 L -681.9996337890625 57.99961090087891 C -681.9996337890625 52.59852981567383 -683.0568237304688 47.36056518554688 -685.1417846679688 42.43120956420898 C -687.1563110351562 37.66848754882812 -690.0408935546875 33.39047622680664 -693.7153930664062 29.71600914001465 C -697.3899536132812 26.04153251647949 -701.6680297851562 23.1569766998291 -706.430908203125 21.14247703552246 C -711.3603515625 19.05747604370117 -716.5985107421875 18.00029754638672 -721.9998168945312 18.00029754638672 L -736.000244140625 18.00029754638672 C -738.3536987304688 18.00029754638672 -740.6990356445312 18.20514678955078 -743.0001220703125 18.61061668395996 L -743.0001220703125 27.99989891052246 C -743.0001220703125 33.40119934082031 -741.9429321289062 38.63934326171875 -739.85791015625 43.56883239746094 C -737.8434448242188 48.3316764831543 -734.9588623046875 52.60976409912109 -731.2843017578125 56.28428649902344 C -727.6098022460938 59.95880889892578 -723.3317260742188 62.84339904785156 -718.56884765625 64.85791015625 C -713.639404296875 66.94290924072266 -708.4012451171875 68.00009918212891 -702.9999389648438 68.00009918212891 L -689.0004272460938 68.00009918212891 M -689.0004272460938 71.00009918212891 L -702.9999389648438 71.00009918212891 C -726.7482299804688 71.00009918212891 -746.0001220703125 51.74819946289062 -746.0001220703125 27.99989891052246 L -746.0001220703125 16.16918754577637 C -742.79150390625 15.40505409240723 -739.4427490234375 15.00029850006104 -736.000244140625 15.00029850006104 L -721.9998168945312 15.00029850006104 C -698.2515258789062 15.00029850006104 -678.9996337890625 34.252197265625 -678.9996337890625 57.99961090087891 L -678.9996337890625 69.83100128173828 C -682.208251953125 70.59512329101562 -685.5579223632812 71.00009918212891 -689.0004272460938 71.00009918212891 Z" stroke="none" fill="#006321"/>
    </g>
    <g id="Intersection_2" data-name="Intersection 2" transform="matrix(1, -0.017, 0.017, 1, 826.536, 36.254)" fill="#b2dcc0">
      <path d="M -695.0720825195312 37.49970245361328 L -710.176513671875 37.49970245361328 C -713.4974365234375 37.49970245361328 -716.7432861328125 36.91519165039062 -719.8239135742188 35.76240158081055 C -722.800537109375 34.64853286743164 -725.5444946289062 33.03599166870117 -727.9794921875 30.96956253051758 C -732.425537109375 27.19652557373047 -735.5595092773438 22.11014175415039 -736.9278564453125 16.50030136108398 L -721.8243408203125 16.50030136108398 C -718.5032348632812 16.50030136108398 -715.2572021484375 17.08481216430664 -712.1764526367188 18.23761177062988 C -709.19970703125 19.35148239135742 -706.4556274414062 20.96402168273926 -704.0205688476562 23.03045272827148 C -699.5744018554688 26.8034610748291 -696.4404296875 31.88983345031738 -695.0720825195312 37.49970245361328 Z" stroke="none"/>
      <path d="M -697.0562133789062 35.99970245361328 C -698.5394897460938 31.4339599609375 -701.2825317382812 27.32124519348145 -704.9910888671875 24.17415237426758 C -707.293701171875 22.22013282775879 -709.8880615234375 20.69546127319336 -712.7021484375 19.64247131347656 C -715.6141967773438 18.55281257629395 -718.683349609375 18.00030136108398 -721.8243408203125 18.00030136108398 L -734.9436645507812 18.00030136108398 C -733.46044921875 22.56603050231934 -730.7174682617188 26.67875480651855 -727.0089111328125 29.82587242126465 C -724.7063598632812 31.77989196777344 -722.1121215820312 33.30456161499023 -719.2982177734375 34.35754013061523 C -716.3862915039062 35.44720077514648 -713.3172607421875 35.99970245361328 -710.176513671875 35.99970245361328 L -697.0562133789062 35.99970245361328 M -693.2267456054688 38.99970245361328 L -710.176513671875 38.99970245361328 C -724.4935302734375 38.99970245361328 -736.3900756835938 28.63562202453613 -738.7731323242188 15.0003023147583 L -721.8243408203125 15.0003023147583 C -707.5064697265625 15.0003023147583 -695.60986328125 25.36438179016113 -693.2267456054688 38.99970245361328 Z" stroke="none" fill="#006321"/>
    </g>
  </g>
</svg>
