<svg xmlns="http://www.w3.org/2000/svg" width="601.776" height="386.895" viewBox="0 0 601.776 386.895">
  <g id="Group_29" data-name="Group 29" transform="translate(82.702 -664.342)">
    <path id="Path_12" data-name="Path 12" d="M35.583-9.16c57.712,0,176.424,40.8,176.424,82.048s-46.785,74.692-104.5,74.692S35.583,107.568,35.583,66.317-22.129-9.16,35.583-9.16Z" transform="translate(271.067 784.749)" fill="#ccc"/>
    <path id="Path_11" data-name="Path 11" d="M488.642-11.917c109.72,0-91.312,81.962-91.312,164.837S308.385,302.978,198.665,302.978,0,235.795,0,152.92,378.922-11.917,488.642-11.917Z" transform="translate(-46.702 712.259)" fill="#ccc"/>
    <g id="Path_9" data-name="Path 9" transform="translate(-38.862 738.917)" fill="#b2dcc0">
      <path d="M 180.9162445068359 247.3468322753906 C 168.7108917236328 247.3468322753906 156.5139617919922 246.5023345947266 144.6640930175781 244.8368377685547 C 133.1188812255859 243.2141876220703 121.763671875 240.7931976318359 110.9139556884766 237.6411895751953 C 100.2666015625 234.5479736328125 89.99874114990234 230.7201843261719 80.39566802978516 226.2640533447266 C 70.89152526855469 221.8539123535156 61.95638275146484 216.7905426025391 53.83838272094727 211.2146911621094 C 45.73052597045898 205.6457672119141 38.37195587158203 199.5203399658203 31.96709823608398 193.0086975097656 C 25.51188468933105 186.4459075927734 19.96974182128906 179.4334716796875 15.49459838867188 172.1661834716797 C 10.94538402557373 164.7788391113281 7.452598571777344 157.0515441894531 5.11316967010498 149.1990509033203 C 2.715669870376587 141.1516876220703 1.500027060508728 132.8699798583984 1.500027060508728 124.5840454101562 C 1.500027060508728 120.6642608642578 2.740526914596558 116.6024017333984 5.187098503112793 112.5113296508789 C 7.600598335266113 108.4754791259766 11.24195575714111 104.3144760131836 16.00995635986328 100.1439743041992 C 25.15024185180664 92.14897918701172 38.64481353759766 83.91126251220703 56.11881256103516 75.6595458984375 C 72.33588409423828 68.00140380859375 92.12131500244141 60.26269149780273 114.9255981445312 52.65833282470703 C 136.0242462158203 45.6226921081543 159.7352447509766 38.68911743164062 185.3998870849609 32.05011749267578 C 209.2693786621094 25.8754768371582 234.5650939941406 20.02004814147949 260.5843200683594 14.64647579193115 C 285.158447265625 9.571332931518555 309.7049560546875 5.061262130737305 333.5420227050781 1.241547584533691 C 356.6691589355469 -2.464380979537964 378.1321716308594 -5.363309383392334 397.3349609375 -7.374666690826416 C 416.6076049804688 -9.393381118774414 432.6398010253906 -10.41695213317871 444.9863891601562 -10.41695213317871 C 454.241943359375 -10.41695213317871 461.3323059082031 -9.814452171325684 466.0604553222656 -8.626237869262695 C 470.143310546875 -7.600166797637939 472.527099609375 -6.155523777008057 473.1455993652344 -4.332380771636963 C 473.6106567382812 -2.961809396743774 473.138671875 -1.127166628837585 471.74267578125 1.120547652244568 C 470.2967529296875 3.448761940002441 467.9052429199219 6.17640495300293 464.4316711425781 9.459261894226074 C 457.7696838378906 15.75540447235107 448.2325134277344 23.06890487670898 437.1895141601562 31.53719139099121 C 420.4778747558594 44.35247802734375 401.5365295410156 58.87754821777344 386.5127563476562 74.59190368652344 C 368.8960876464844 93.01833343505859 360.3324584960938 109.3709030151367 360.3324584960938 124.5840454101562 C 360.3324584960938 132.8699798583984 359.1168212890625 141.1516876220703 356.7192993164062 149.1990509033203 C 354.3798828125 157.0515441894531 350.8870239257812 164.7788391113281 346.337890625 172.1661834716797 C 341.8627319335938 179.4334716796875 336.3205871582031 186.4459075927734 329.8653869628906 193.0086975097656 C 323.4605407714844 199.5203399658203 316.1019592285156 205.6457672119141 307.9940185546875 211.2146911621094 C 299.8760375976562 216.7905426025391 290.9408874511719 221.8539123535156 281.4367980957031 226.2640533447266 C 271.833740234375 230.7201843261719 261.5658874511719 234.5479736328125 250.9185333251953 237.6411895751953 C 240.0687408447266 240.7931976318359 228.7135925292969 243.2141876220703 217.1683807373047 244.8368377685547 C 205.3185272216797 246.5023345947266 193.1215972900391 247.3468322753906 180.9162445068359 247.3468322753906 Z" stroke="none"/>
      <path d="M 444.9863891601562 -8.917007446289062 C 432.6918029785156 -8.917007446289062 416.7120971679688 -7.896148681640625 397.4912414550781 -5.882858276367188 C 378.3154602050781 -3.874298095703125 356.8796691894531 -0.97900390625 333.779296875 2.722640991210938 C 309.9642333984375 6.538772583007812 285.43994140625 11.04478454589844 260.8876647949219 16.11541748046875 C 234.8925170898438 21.48399353027344 209.6211547851562 27.33377075195312 185.7755126953125 33.50227355957031 C 160.1439514160156 40.13270568847656 136.4662475585938 47.05648803710938 115.4000854492188 54.08120727539062 C 92.65216064453125 61.66677856445312 72.92251586914062 69.38313293457031 56.75924682617188 77.01591491699219 C 39.41094970703125 85.20828247070312 26.03314208984375 93.36949157714844 16.99737548828125 101.2729949951172 C 12.34771728515625 105.3400573730469 8.8072509765625 109.3802032470703 6.474365234375 113.2812042236328 C 4.16888427734375 117.136344909668 2.99993896484375 120.9391326904297 2.99993896484375 124.5840606689453 C 2.99993896484375 132.7249145507812 4.194580078125 140.8624877929688 6.5506591796875 148.7707824707031 C 8.85260009765625 156.4974212646484 12.29144287109375 164.1041259765625 16.771728515625 171.379638671875 C 21.18792724609375 178.5510559082031 26.66015625 185.4742736816406 33.036376953125 191.9568481445312 C 39.37408447265625 198.4002075195312 46.65859985351562 204.4635009765625 54.68759155273438 209.9782104492188 C 62.73681640625 215.5067749023438 71.59860229492188 220.5283508300781 81.02694702148438 224.9033508300781 C 90.56146240234375 229.32763671875 100.7576599121094 233.1286315917969 111.3323974609375 236.2006988525391 C 122.1135864257812 239.3327789306641 133.3982543945312 241.7386322021484 144.872802734375 243.3514251708984 C 156.6537475585938 245.0072021484375 168.7804565429688 245.8467712402344 180.9161682128906 245.8467712402344 C 193.0518798828125 245.8467712402344 205.1786804199219 245.0072021484375 216.9595336914062 243.3514251708984 C 228.4341735839844 241.7386322021484 239.71875 239.3327789306641 250.5000305175781 236.2006988525391 C 261.0747375488281 233.1286315917969 271.2709655761719 229.32763671875 280.8054504394531 224.9033508300781 C 290.2337341308594 220.5283508300781 299.0955810546875 215.5067749023438 307.1448059082031 209.9782104492188 C 315.1737365722656 204.4635009765625 322.4583129882812 198.4002075195312 328.7960205078125 191.9568481445312 C 335.1722412109375 185.4742736816406 340.6444702148438 178.5510559082031 345.0606689453125 171.379638671875 C 349.5409545898438 164.1041259765625 352.9797973632812 156.4974212646484 355.28173828125 148.7707824707031 C 357.6378173828125 140.8624877929688 358.8324584960938 132.7249145507812 358.8324584960938 124.5840606689453 C 358.8324584960938 108.9659881591797 367.5321044921875 92.27435302734375 385.4285278320312 73.55528259277344 C 400.5321044921875 57.75741577148438 419.5221557617188 43.19499206542969 436.2767333984375 30.34684753417969 C 447.2868041992188 21.90377807617188 456.7955322265625 14.612060546875 463.4013061523438 8.368988037109375 C 466.7798156738281 5.175994873046875 469.0915222167969 2.546127319335938 470.4683837890625 0.3290557861328125 C 471.5838928222656 -1.467010498046875 472.0301513671875 -2.951370239257812 471.72509765625 -3.850509643554688 C 471.2995300292969 -5.1048583984375 469.1015930175781 -6.31536865234375 465.69482421875 -7.1715087890625 C 461.086181640625 -8.329727172851562 454.1188049316406 -8.917007446289062 444.9863891601562 -8.917007446289062 M 444.9863891601562 -11.91700744628906 C 544.9036254882812 -11.91700744628906 361.8324584960938 55.95562744140625 361.8324584960938 124.5840606689453 C 361.8324584960938 193.2124938964844 280.8334655761719 248.8467712402344 180.9161682128906 248.8467712402344 C 80.99896240234375 248.8467712402344 -6.103515625e-05 193.2124938964844 -6.103515625e-05 124.5840606689453 C -6.103515625e-05 55.95562744140625 345.069091796875 -11.91700744628906 444.9863891601562 -11.91700744628906 Z" stroke="none" fill="#157435"/>
    </g>
    <g id="Path_10" data-name="Path 10" transform="translate(208.53 794.917)" fill="#b2dcc0">
      <path d="M 149.9999847412109 184.5000305175781 C 139.9869384765625 184.5000305175781 130.5776214599609 183.7533874511719 122.0333938598633 182.2808532714844 C 113.8744354248047 180.8746643066406 106.2862091064453 178.7689819335938 99.47953033447266 176.022216796875 C 93.00125885009766 173.4079895019531 87.05635070800781 170.1424407958984 81.81002807617188 166.3163909912109 C 76.82798767089844 162.6830291748047 72.33988952636719 158.4448852539062 68.47048187255859 153.7197113037109 C 64.80316925048828 149.2413482666016 61.59152984619141 144.2033538818359 58.92471313476562 138.7456665039062 C 56.40671157836914 133.5926208496094 54.30671310424805 127.9268951416016 52.68293762207031 121.905891418457 C 51.15970993041992 116.2576217651367 50.01507568359375 110.1463012695312 49.28075790405273 103.7417068481445 C 48.59807586669922 97.78730010986328 48.25193786621094 91.42052459716797 48.25193786621094 84.81825256347656 C 48.25193786621094 64.12734985351562 35.1512565612793 44.88698196411133 24.62466621398926 29.42707443237305 C 20.29325675964355 23.06571006774902 16.20203018188477 17.05711936950684 13.78680229187012 12.00584697723389 C 11.28698444366455 6.777528285980225 10.79171085357666 3.077482938766479 12.22821140289307 0.3615283668041229 C 12.87221145629883 -0.8561080098152161 13.9052562713623 -1.900835275650024 15.38643836975098 -2.832289934158325 C 17.01212120056152 -3.854608058929443 19.18807411193848 -4.724380493164062 21.85380172729492 -5.417380809783936 C 27.65884780883789 -6.926426410675049 35.80311965942383 -7.660017013549805 46.75193786621094 -7.660017013549805 C 88.20048522949219 -7.660017013549805 151.3665771484375 5.091255664825439 203.9326171875 24.06993675231934 C 217.4649353027344 28.95570945739746 229.9582977294922 34.13270950317383 241.0656127929688 39.4571647644043 C 252.7701263427734 45.06784820556641 262.9170227050781 50.83598327636719 271.2245178222656 56.60125732421875 C 279.9939880371094 62.68716430664062 286.7566223144531 68.80166625976562 291.3245849609375 74.77484893798828 C 293.6804504394531 77.85552978515625 295.4795837402344 80.93980407714844 296.6719360351562 83.94207000732422 C 297.8849487304688 86.99625396728516 298.4999694824219 90.04380035400391 298.4999694824219 92.99998474121094 C 298.4999694824219 99.14989471435547 297.5000610351562 105.2977066040039 295.528076171875 111.2726211547852 C 293.6012878417969 117.1106185913086 290.7229919433594 122.8577575683594 286.9731140136719 128.3544769287109 C 283.2784423828125 133.7702941894531 278.7010803222656 138.9978942871094 273.3681335449219 143.8920288085938 C 268.0710754394531 148.7532501220703 261.9838562011719 153.3269805908203 255.2755737304688 157.4860687255859 C 248.5548858642578 161.6529388427734 241.1568450927734 165.4371185302734 233.2868957519531 168.7335357666016 C 225.3324432373047 172.0653991699219 216.8267974853516 174.9276123046875 208.0062561035156 177.2406616210938 C 199.0166168212891 179.5981140136719 189.6078948974609 181.4088439941406 180.0414428710938 182.6225280761719 C 170.2218017578125 183.8683471679688 160.1143951416016 184.5000305175781 149.9999847412109 184.5000305175781 Z" stroke="none"/>
      <path d="M 46.75193786621094 -6.160064697265625 C 35.93215942382812 -6.160064697265625 27.91134643554688 -5.442291259765625 22.23121643066406 -3.965652465820312 C 17.601806640625 -2.762191772460938 14.68238830566406 -1.07037353515625 13.55416870117188 1.062759399414062 C 12.9744873046875 2.158706665039062 12.80293273925781 3.480850219726562 13.02961730957031 5.1046142578125 C 13.27375793457031 6.853530883789062 13.96408081054688 8.899261474609375 15.14007568359375 11.35874938964844 C 17.50607299804688 16.30715942382812 21.56611633300781 22.26994323730469 25.86457824707031 28.58283996582031 C 36.50703430175781 44.21298217773438 49.75193786621094 63.6651611328125 49.75193786621094 84.81825256347656 C 49.75193786621094 91.36366271972656 50.09480285644531 97.67293548583984 50.77102661132812 103.5708465576172 C 51.49684143066406 109.9015274047852 52.62739562988281 115.9389343261719 54.13121032714844 121.5153045654297 C 55.73011779785156 127.4442138671875 57.79629516601562 133.0197601318359 60.27239990234375 138.0870666503906 C 62.88839721679688 143.4407043457031 66.03707885742188 148.3805236816406 69.63102722167969 152.7693481445312 C 73.41970825195312 157.3959808349609 77.81471252441406 161.5460815429688 82.69389343261719 165.1043853759766 C 87.840576171875 168.8578033447266 93.67694091796875 172.0630798339844 100.0408935546875 174.6311645507812 C 106.7489318847656 177.3381195068359 114.2339782714844 179.4144897460938 122.2881622314453 180.8025665283203 C 130.7484893798828 182.2606658935547 140.0720825195312 182.9999847412109 149.9999847412109 182.9999847412109 C 160.0515289306641 182.9999847412109 170.0953979492188 182.3722991943359 179.8526306152344 181.1343994140625 C 189.3546752929688 179.9288940429688 198.6989440917969 178.1306610107422 207.6257629394531 175.7897033691406 C 216.3787078857422 173.4943542480469 224.8173522949219 170.6548461914062 232.7073974609375 167.3499755859375 C 240.5044860839844 164.0840759277344 247.8316192626953 160.3364410400391 254.4851684570312 156.2112121582031 C 261.1138916015625 152.1013946533203 267.1257934570312 147.5848083496094 272.3538818359375 142.7868957519531 C 277.602294921875 137.9703521728516 282.1039733886719 132.8301696777344 285.7339782714844 127.5091247558594 C 289.4048461914062 122.1282501220703 292.2207946777344 116.5073471069336 294.1036682128906 110.8024826049805 C 296.0255126953125 104.9795303344727 297 98.98989105224609 297 92.99998474121094 C 297 90.23420715332031 296.4205627441406 87.37298583984375 295.2778930664062 84.49575805664062 C 294.1362915039062 81.62139129638672 292.4053344726562 78.65739440917969 290.1330261230469 75.68602752685547 C 285.6599731445312 69.83689117431641 279.010498046875 63.83048248291016 270.3692932128906 57.83357238769531 C 262.1272583007812 52.11366271972656 252.0498962402344 46.38603210449219 240.4172058105469 40.80975341796875 C 229.3550720214844 35.50694274902344 216.9084777832031 30.34953308105469 203.4232177734375 25.48075866699219 C 190.4794921875 20.80747985839844 176.7066192626953 16.44439697265625 162.4871673583984 12.51266479492188 C 148.6060791015625 8.674484252929688 134.5397186279297 5.312667846679688 120.6788024902344 2.520523071289062 C 106.8561706542969 -0.263885498046875 93.52853393554688 -2.42333984375 81.06611633300781 -3.897842407226562 C 68.37852478027344 -5.39892578125 56.83357238769531 -6.160064697265625 46.75193786621094 -6.160064697265625 M 46.75193786621094 -9.160064697265625 C 129.5946655273438 -9.160064697265625 300 41.63752746582031 300 92.99998474121094 C 300 144.3624877929688 232.8427124023438 185.9999847412109 149.9999847412109 185.9999847412109 C 67.15730285644531 185.9999847412109 46.75193786621094 136.1807098388672 46.75193786621094 84.81825256347656 C 46.75193786621094 33.45574951171875 -36.09072875976562 -9.160064697265625 46.75193786621094 -9.160064697265625 Z" stroke="none" fill="#157435"/>
    </g>
    <g id="Component_1_2" data-name="Component 1 – 2" transform="translate(65.587 785.757)">
      <path id="Union_2" data-name="Union 2" d="M-771.05,57.526V14.864h8.1V57.526ZM-776,14.864l4.639-3.421A9,9,0,0,1-779,2.545V-20a9,9,0,0,1,9-9h6a9,9,0,0,1,9,9V2.545a9,9,0,0,1-7.638,8.9L-758,14.864Z" transform="translate(826.706 105.981)" fill="#a9a9a9" stroke="#707070" stroke-width="1"/>
      <rect id="Rectangle_6" data-name="Rectangle 6" width="2.5" height="29.273" rx="1.25" transform="translate(53.156 76.981)" fill="#b2dcc0" stroke="#707070" stroke-width="1"/>
      <rect id="Rectangle_7" data-name="Rectangle 7" width="2.5" height="29.273" rx="1.25" transform="translate(63.756 76.981)" fill="#b2dcc0" stroke="#707070" stroke-width="1"/>
      <rect id="Rectangle_8" data-name="Rectangle 8" width="2.5" height="29.273" rx="1.25" transform="translate(58.456 76.981)" fill="#b2dcc0" stroke="#707070" stroke-width="1"/>
      <path id="Path_5" data-name="Path 5" d="M813.75,129c61.683,29.77,119.413,0,119.413,0" transform="translate(-813.75 -66.493)" fill="#b2dcc0" stroke="#006321" stroke-linecap="round" stroke-width="25"/>
      <g id="Polygon_12" data-name="Polygon 12" transform="matrix(-0.966, -0.259, 0.259, -0.966, 17.179, 75.981)" fill="#b2dcc0">
        <path d="M 3.444608926773071 18.5 L 0.5553909540176392 18.5 L 1.99999988079071 4.776215076446533 L 3.444608926773071 18.5 Z" stroke="none"/>
        <path d="M 1.99999988079071 9.552524566650391 L 1.110791921615601 18 L 2.88920783996582 18 L 1.99999988079071 9.552524566650391 M 1.99999988079071 0 L 4 19 L -2.384185791015625e-07 19 L 1.99999988079071 0 Z" stroke="none" fill="#b2dcc0"/>
      </g>
      <g id="Polygon_13" data-name="Polygon 13" transform="translate(105.793 73.52) rotate(166)" fill="#b2dcc0">
        <path d="M 3.444608926773071 18.5 L 0.5553909540176392 18.5 L 1.99999988079071 4.776215076446533 L 3.444608926773071 18.5 Z" stroke="none"/>
        <path d="M 1.99999988079071 9.552524566650391 L 1.110791921615601 18 L 2.88920783996582 18 L 1.99999988079071 9.552524566650391 M 1.99999988079071 0 L 4 19 L -2.384185791015625e-07 19 L 1.99999988079071 0 Z" stroke="none" fill="#b2dcc0"/>
      </g>
      <g id="Polygon_14" data-name="Polygon 14" transform="translate(90.139 75.112) rotate(171)" fill="#b2dcc0">
        <path d="M 3.434489488601685 15.70228004455566 L 0.5655102729797363 15.70228004455566 L 1.99999988079071 4.081278800964355 L 3.434489488601685 15.70228004455566 Z" stroke="none"/>
        <path d="M 1.99999988079071 8.16264820098877 L 1.13103175163269 15.20228004455566 L 2.86896800994873 15.20228004455566 L 1.99999988079071 8.16264820098877 M 1.99999988079071 0 L 4 16.20228004455566 L -2.384185791015625e-07 16.20228004455566 L 1.99999988079071 0 Z" stroke="none" fill="#b2dcc0"/>
      </g>
      <g id="Polygon_15" data-name="Polygon 15" transform="translate(36.508 74.487) rotate(-171)" fill="#b2dcc0">
        <path d="M 4.396432876586914 12.70228004455566 L 0.6035668849945068 12.70228004455566 L 2.5 2.687383651733398 L 4.396432876586914 12.70228004455566 Z" stroke="none"/>
        <path d="M 2.5 5.374757289886475 L 1.207131862640381 12.20228004455566 L 3.792868137359619 12.20228004455566 L 2.5 5.374757289886475 M 2.5 0 L 5 13.20228004455566 L 0 13.20228004455566 L 2.5 0 Z" stroke="none" fill="#b2dcc0"/>
      </g>
      <g id="Polygon_16" data-name="Polygon 16" transform="matrix(-0.998, 0.07, -0.07, -0.998, 70.847, 74.68)" fill="#b2dcc0">
        <path d="M 3.411373138427734 11.70228004455566 L 0.5886266827583313 11.70228004455566 L 1.99999988079071 3.091294527053833 L 3.411373138427734 11.70228004455566 Z" stroke="none"/>
        <path d="M 1.99999988079071 6.182538032531738 L 1.177245140075684 11.20228004455566 L 2.822754621505737 11.20228004455566 L 1.99999988079071 6.182538032531738 M 1.99999988079071 0 L 4 12.20228004455566 L -2.384185791015625e-07 12.20228004455566 L 1.99999988079071 0 Z" stroke="none" fill="#b2dcc0"/>
      </g>
      <g id="Polygon_17" data-name="Polygon 17" transform="translate(52.246 80.894) rotate(-177)" fill="#b2dcc0">
        <path d="M 3.442051410675049 17.70228004455566 L 0.5579484105110168 17.70228004455566 L 1.99999988079071 4.577967643737793 L 3.442051410675049 17.70228004455566 Z" stroke="none"/>
        <path d="M 1.99999988079071 9.155935287475586 L 1.115896940231323 17.20228004455566 L 2.884102821350098 17.20228004455566 L 1.99999988079071 9.155935287475586 M 1.99999988079071 0 L 4 18.20228004455566 L -2.384185791015625e-07 18.20228004455566 L 1.99999988079071 0 Z" stroke="none" fill="#b2dcc0"/>
      </g>
      <g id="Intersection_1" data-name="Intersection 1" transform="matrix(0.966, -0.259, 0.259, 0.966, 733.299, -190.227)" fill="#1e5f34">
        <path d="M -689.0004272460938 69.50009918212891 L -702.9999389648438 69.50009918212891 C -708.6030883789062 69.50009918212891 -714.037841796875 68.40304565429688 -719.1531982421875 66.23941802978516 C -724.0948486328125 64.14927673339844 -728.533203125 61.1567497253418 -732.344970703125 57.34494781494141 C -736.15673828125 53.53315734863281 -739.1492919921875 49.09479904174805 -741.2394409179688 44.15316772460938 C -743.403076171875 39.03777694702148 -744.5001220703125 33.6030387878418 -744.5001220703125 27.99989891052246 L -744.5001220703125 17.37139892578125 C -741.7185668945312 16.79306983947754 -738.8648071289062 16.50029754638672 -736.000244140625 16.50029754638672 L -721.9998168945312 16.50029754638672 C -716.3966674804688 16.50029754638672 -710.9619750976562 17.59734916687012 -705.8465576171875 19.7609691619873 C -700.9049072265625 21.85108757019043 -696.466552734375 24.84358787536621 -692.65478515625 28.65533828735352 C -688.8429565429688 32.46707916259766 -685.8504638671875 36.90534973144531 -683.7603149414062 41.84686660766602 C -681.5966796875 46.96212005615234 -680.4996337890625 52.39668655395508 -680.4996337890625 57.99960708618164 L -680.4996337890625 68.6287841796875 C -683.2818603515625 69.20730590820312 -686.1356811523438 69.50009918212891 -689.0004272460938 69.50009918212891 Z" stroke="none"/>
        <path d="M -689.0004272460938 68.00009918212891 C -686.6468505859375 68.00009918212891 -684.30126953125 67.79520416259766 -681.9996337890625 67.38958740234375 L -681.9996337890625 57.99961090087891 C -681.9996337890625 52.59852981567383 -683.0568237304688 47.36056518554688 -685.1417846679688 42.43120956420898 C -687.1563110351562 37.66848754882812 -690.0408935546875 33.39047622680664 -693.7153930664062 29.71600914001465 C -697.3899536132812 26.04153251647949 -701.6680297851562 23.1569766998291 -706.430908203125 21.14247703552246 C -711.3603515625 19.05747604370117 -716.5985107421875 18.00029754638672 -721.9998168945312 18.00029754638672 L -736.000244140625 18.00029754638672 C -738.3536987304688 18.00029754638672 -740.6990356445312 18.20514678955078 -743.0001220703125 18.61061668395996 L -743.0001220703125 27.99989891052246 C -743.0001220703125 33.40119934082031 -741.9429321289062 38.63934326171875 -739.85791015625 43.56883239746094 C -737.8434448242188 48.3316764831543 -734.9588623046875 52.60976409912109 -731.2843017578125 56.28428649902344 C -727.6098022460938 59.95880889892578 -723.3317260742188 62.84339904785156 -718.56884765625 64.85791015625 C -713.639404296875 66.94290924072266 -708.4012451171875 68.00009918212891 -702.9999389648438 68.00009918212891 L -689.0004272460938 68.00009918212891 M -689.0004272460938 71.00009918212891 L -702.9999389648438 71.00009918212891 C -726.7482299804688 71.00009918212891 -746.0001220703125 51.74819946289062 -746.0001220703125 27.99989891052246 L -746.0001220703125 16.16918754577637 C -742.79150390625 15.40505409240723 -739.4427490234375 15.00029850006104 -736.000244140625 15.00029850006104 L -721.9998168945312 15.00029850006104 C -698.2515258789062 15.00029850006104 -678.9996337890625 34.252197265625 -678.9996337890625 57.99961090087891 L -678.9996337890625 69.83100128173828 C -682.208251953125 70.59512329101562 -685.5579223632812 71.00009918212891 -689.0004272460938 71.00009918212891 Z" stroke="none" fill="#006321"/>
      </g>
      <g id="Intersection_2" data-name="Intersection 2" transform="matrix(1, -0.017, 0.017, 1, 786.242, 2.761)" fill="#b2dcc0">
        <path d="M -695.0720825195312 37.49970245361328 L -710.176513671875 37.49970245361328 C -713.4974365234375 37.49970245361328 -716.7432861328125 36.91519165039062 -719.8239135742188 35.76240158081055 C -722.800537109375 34.64853286743164 -725.5444946289062 33.03599166870117 -727.9794921875 30.96956253051758 C -732.425537109375 27.19652557373047 -735.5595092773438 22.11014175415039 -736.9278564453125 16.50030136108398 L -721.8243408203125 16.50030136108398 C -718.5032348632812 16.50030136108398 -715.2572021484375 17.08481216430664 -712.1764526367188 18.23761177062988 C -709.19970703125 19.35148239135742 -706.4556274414062 20.96402168273926 -704.0205688476562 23.03045272827148 C -699.5744018554688 26.8034610748291 -696.4404296875 31.88983345031738 -695.0720825195312 37.49970245361328 Z" stroke="none"/>
        <path d="M -697.0562133789062 35.99970245361328 C -698.5394897460938 31.4339599609375 -701.2825317382812 27.32124519348145 -704.9910888671875 24.17415237426758 C -707.293701171875 22.22013282775879 -709.8880615234375 20.69546127319336 -712.7021484375 19.64247131347656 C -715.6141967773438 18.55281257629395 -718.683349609375 18.00030136108398 -721.8243408203125 18.00030136108398 L -734.9436645507812 18.00030136108398 C -733.46044921875 22.56603050231934 -730.7174682617188 26.67875480651855 -727.0089111328125 29.82587242126465 C -724.7063598632812 31.77989196777344 -722.1121215820312 33.30456161499023 -719.2982177734375 34.35754013061523 C -716.3862915039062 35.44720077514648 -713.3172607421875 35.99970245361328 -710.176513671875 35.99970245361328 L -697.0562133789062 35.99970245361328 M -693.2267456054688 38.99970245361328 L -710.176513671875 38.99970245361328 C -724.4935302734375 38.99970245361328 -736.3900756835938 28.63562202453613 -738.7731323242188 15.0003023147583 L -721.8243408203125 15.0003023147583 C -707.5064697265625 15.0003023147583 -695.60986328125 25.36438179016113 -693.2267456054688 38.99970245361328 Z" stroke="none" fill="#006321"/>
      </g>
    </g>
  </g>
</svg>
