<svg xmlns="http://www.w3.org/2000/svg" width="645" height="495.061" viewBox="0 0 645 495.061">
  <g id="Group_9" data-name="Group 9" transform="translate(127 127)">
    <g id="Path_7" data-name="Path 7" transform="translate(-127 -22)" fill="#b2dcc0">
      <path d="M 425.0430603027344 388.5606689453125 C 411.872802734375 388.5606689453125 395.4810791015625 387.078125 376.3232727050781 384.1542053222656 C 357.2692565917969 381.2460632324219 336.2662048339844 377.0328674316406 313.8976135253906 371.631591796875 C 290.9655456542969 366.0943298339844 267.4647216796875 359.514404296875 244.0478668212891 352.0747375488281 C 219.4239349365234 344.2515869140625 195.5227966308594 335.6724548339844 173.0082702636719 326.5756530761719 C 148.9584045410156 316.8584594726562 126.752799987793 306.6503295898438 107.0082702636719 296.2347412109375 C 85.78119659423828 285.0370788574219 67.37106323242188 273.578857421875 52.28933334350586 262.178466796875 C 44.34673309326172 256.1745910644531 37.22299957275391 250.1024017333984 31.11606597900391 244.1305999755859 C 24.79526710510254 237.9496002197266 19.40866661071777 231.7243347167969 15.10586643218994 225.6278076171875 C 10.6645336151123 219.3350067138672 7.267000198364258 213.0216674804688 5.0076003074646 206.8631286621094 C 2.680133581161499 200.5192718505859 1.500000238418579 194.1728057861328 1.500000238418579 188 C 1.500000238418579 175.3481292724609 2.811800241470337 162.7046051025391 5.39900016784668 150.4206085205078 C 7.920400142669678 138.4491271972656 11.6827335357666 126.6734008789062 16.58153343200684 115.4206695556641 C 21.39179992675781 104.3710708618164 27.34586715698242 93.71340179443359 34.2783317565918 83.74373626708984 C 41.14566802978516 73.86759948730469 49.03266525268555 64.58026885986328 57.72013473510742 56.13973617553711 C 66.40833282470703 47.69853591918945 75.96859741210938 40.0348014831543 86.13539886474609 33.36146926879883 C 96.40019989013672 26.62380027770996 107.3737335205078 20.83686828613281 118.7511978149414 16.16140174865723 C 130.3394622802734 11.39926815032959 142.4665374755859 7.741868019104004 154.7955322265625 5.29066801071167 C 167.4472045898438 2.77540111541748 180.4692687988281 1.500001192092896 193.5 1.500001192092896 C 206.5307312011719 1.500001192092896 219.5527954101562 2.77540111541748 232.2044677734375 5.29066801071167 C 244.5334625244141 7.741868019104004 256.6605224609375 11.39926815032959 268.2488098144531 16.16140174865723 C 279.6262817382812 20.83686828613281 290.5997924804688 26.62380027770996 300.8645935058594 33.36146926879883 C 311.0314025878906 40.0348014831543 320.5916748046875 47.69853591918945 329.2798767089844 56.13973617553711 C 337.9673461914062 64.58026885986328 345.8543395996094 73.86759948730469 352.7216796875 83.74373626708984 C 359.6541442871094 93.71340179443359 365.6082153320312 104.3710708618164 370.41845703125 115.4206695556641 C 375.3172607421875 126.6734008789062 379.07958984375 138.4491271972656 381.6010131835938 150.4206085205078 C 384.1882019042969 162.7046051025391 385.5 175.3481292724609 385.5 188 C 385.5 233.9345397949219 413.4093933105469 278.4860534667969 435.8349914550781 314.2838745117188 C 445.0315856933594 328.9642639160156 452.9739990234375 341.6427307128906 457.90673828125 352.5489196777344 C 460.4901428222656 358.2609252929688 462.0244750976562 363.0139465332031 462.5973205566406 367.07958984375 C 463.2031860351562 371.3787231445312 462.7306518554688 374.8541870117188 461.1528015136719 377.7045288085938 C 460.2131958007812 379.4019470214844 458.8415222167969 380.9116821289062 457.0760803222656 382.1917419433594 C 455.2005920410156 383.5514526367188 452.8097229003906 384.7068786621094 449.9697265625 385.625732421875 C 446.9980773925781 386.5872802734375 443.4382019042969 387.3211364746094 439.3890686035156 387.8068542480469 C 435.2196655273438 388.3070678710938 430.3929443359375 388.5606689453125 425.0430603027344 388.5606689453125 Z" stroke="none"/>
      <path d="M 193.5 2.999969482421875 C 180.5671997070312 2.999969482421875 167.6435546875 4.26568603515625 155.0879821777344 6.76190185546875 C 142.8538513183594 9.194183349609375 130.8201904296875 12.82339477539062 119.3213500976562 17.54876708984375 C 108.0320434570312 22.18804931640625 97.1435546875 27.93011474609375 86.95849609375 34.61541748046875 C 76.87106323242188 41.2366943359375 67.385498046875 48.84048461914062 58.76535034179688 57.21560668945312 C 50.14669799804688 65.58926391601562 42.32241821289062 74.80276489257812 35.50985717773438 84.60012817382812 C 28.633544921875 94.48898315429688 22.72784423828125 105.0599670410156 17.95684814453125 116.0194091796875 C 13.09857177734375 127.17919921875 9.36724853515625 138.8574829101562 6.8668212890625 150.7296905517578 C 4.30096435546875 162.9122619628906 3 175.4517669677734 3 187.9999847412109 C 3 193.9959716796875 4.149169921875 200.1686248779297 6.415771484375 206.3464813232422 C 8.62982177734375 212.3814086914062 11.96600341796875 218.5775451660156 16.33135986328125 224.7628326416016 C 24.71826171875 236.6461181640625 37.12063598632812 248.8319702148438 53.19384765625 260.9818420410156 C 68.21121215820312 272.3336181640625 86.55242919921875 283.748046875 107.7081909179688 294.9080505371094 C 127.4079895019531 305.300048828125 149.567138671875 315.4866333007812 173.5701904296875 325.1849060058594 C 196.0494995117188 334.2674865722656 219.9144287109375 342.8335571289062 244.5020446777344 350.6452026367188 C 267.8854064941406 358.0741882324219 291.3518371582031 364.6444702148438 314.2496948242188 370.1735534667969 C 336.576904296875 375.5648193359375 357.5376281738281 379.7696838378906 376.549560546875 382.6714172363281 C 395.6327514648438 385.5838928222656 411.9483337402344 387.0606994628906 425.0430603027344 387.0606994628906 C 430.33349609375 387.0606994628906 435.1000671386719 386.8106994628906 439.2104187011719 386.3175354003906 C 443.1636352539062 385.8433227539062 446.6282043457031 385.1304016113281 449.5079040527344 384.1986083984375 C 452.1978454589844 383.3282775878906 454.4478454589844 382.2444763183594 456.195556640625 380.9773254394531 C 457.8041381835938 379.81103515625 458.996337890625 378.5028991699219 459.8404846191406 376.9781188964844 C 461.2547607421875 374.4231262207031 461.6707763671875 371.2537536621094 461.112060546875 367.2889099121094 C 460.559326171875 363.3665466308594 459.0637817382812 358.7472534179688 456.5399780273438 353.1671142578125 C 451.6490478515625 342.3531799316406 443.7315673828125 329.7145385742188 434.5638427734375 315.0802001953125 C 412.0362548828125 279.11962890625 384 234.3655548095703 384 187.9999847412109 C 384 175.4517669677734 382.698974609375 162.9122619628906 380.1331176757812 150.7296905517578 C 377.6326904296875 138.8574829101562 373.9014892578125 127.17919921875 369.0431213378906 116.0194091796875 C 364.2721252441406 105.0599670410156 358.3663940429688 94.48898315429688 351.4902038574219 84.60012817382812 C 344.6775512695312 74.80276489257812 336.853271484375 65.58926391601562 328.234619140625 57.21560668945312 C 319.614501953125 48.84048461914062 310.1289672851562 41.2366943359375 300.04150390625 34.61541748046875 C 289.8564147949219 27.93011474609375 278.9679870605469 22.18804931640625 267.6786193847656 17.54876708984375 C 256.1798400878906 12.82339477539062 244.1462097167969 9.194183349609375 231.9119873046875 6.76190185546875 C 219.3564147949219 4.26568603515625 206.4327697753906 2.999969482421875 193.5 2.999969482421875 M 193.5 -3.0517578125e-05 C 300.3671264648438 -3.0517578125e-05 387 84.17047119140625 387 187.9999847412109 C 387 291.8295593261719 531.910400390625 390.0606994628906 425.0430603027344 390.0606994628906 C 318.1759643554688 390.0606994628906 0 291.8295593261719 0 187.9999847412109 C 0 84.17047119140625 86.63290405273438 -3.0517578125e-05 193.5 -3.0517578125e-05 Z" stroke="none" fill="#157435"/>
    </g>
    <g id="Path_8" data-name="Path 8" transform="translate(131 -127)" fill="#b2dcc0">
      <path d="M -20.18961715698242 422.6667785644531 C -25.22081756591797 422.6667785644531 -29.83768463134766 422.3640441894531 -33.91201782226562 421.7670288085938 C -37.86281585693359 421.1881713867188 -41.42221832275391 420.3150939941406 -44.49141693115234 419.1722412109375 C -47.44414901733398 418.0726928710938 -50.03368377685547 416.6893005371094 -52.18821716308594 415.0605163574219 C -54.25728225708008 413.4963073730469 -55.99595260620117 411.6511840820312 -57.35594940185547 409.5762939453125 C -58.75588226318359 407.4405822753906 -59.80934906005859 404.9775085449219 -60.48715209960938 402.2555847167969 C -61.14668273925781 399.6066284179688 -61.47495269775391 396.6155700683594 -61.46268463134766 393.3655090332031 C -61.43948364257812 387.22412109375 -60.2431526184082 380.0207824707031 -57.80514907836914 371.3438415527344 C -53.19468307495117 354.9347839355469 -44.70501708984375 335.4215698242188 -35.71688461303711 314.7626342773438 C -18.272216796875 274.6665649414062 1.499982476234436 229.220703125 1.499982476234436 187.9999694824219 C 1.499982476234436 175.3481140136719 2.811782598495483 162.7045745849609 5.398982524871826 150.4205780029297 C 7.920382499694824 138.4491119384766 11.68271541595459 126.6734390258789 16.58151626586914 115.4206390380859 C 21.39178276062012 104.3711090087891 27.34584999084473 93.71343994140625 34.27831649780273 83.7437744140625 C 41.14564895629883 73.86763763427734 49.03264999389648 64.58030700683594 57.72011566162109 56.13977432250977 C 66.40831756591797 47.69857406616211 75.96858215332031 40.03483963012695 86.13538360595703 33.36150741577148 C 96.40018463134766 26.62384033203125 107.3737182617188 20.83690643310547 118.7511825561523 16.16143989562988 C 130.3394470214844 11.39930725097656 142.4665222167969 7.741907119750977 154.7955169677734 5.290707588195801 C 167.4471893310547 2.775440692901611 180.4692535400391 1.500040650367737 193.4999847412109 1.500040650367737 C 206.5307159423828 1.500040650367737 219.5527801513672 2.775440692901611 232.2045135498047 5.290707588195801 C 244.5335083007812 7.741907119750977 256.6605224609375 11.39930725097656 268.248779296875 16.16143989562988 C 279.6263122558594 20.83690643310547 290.599853515625 26.62384033203125 300.8645935058594 33.36150741577148 C 311.0313720703125 40.03483963012695 320.5917053222656 47.69857406616211 329.2799072265625 56.13977432250977 C 337.9673156738281 64.58030700683594 345.8543090820312 73.86763763427734 352.7217102050781 83.7437744140625 C 359.6541137695312 93.71343994140625 365.6081848144531 104.3711090087891 370.41845703125 115.4206390380859 C 375.3172607421875 126.6734390258789 379.07958984375 138.4491119384766 381.6009826660156 150.4205780029297 C 384.1881713867188 162.7045745849609 385.4999694824219 175.3481140136719 385.4999694824219 187.9999694824219 C 385.4999694824219 194.1905059814453 384.3823852539062 200.6799774169922 382.1781921386719 207.2881774902344 C 380.0368347167969 213.7079772949219 376.8185119628906 220.3960418701172 372.6125793457031 227.1667022705078 C 364.5684509277344 240.115966796875 352.7205810546875 253.717041015625 337.3979187011719 267.5922546386719 C 323.0427856445312 280.5913696289062 305.5869750976562 293.8836975097656 285.5155944824219 307.1000366210938 C 266.6271057128906 319.5373840332031 245.5223083496094 331.8477172851562 222.7874450683594 343.6891174316406 C 201.11572265625 354.9767150878906 178.31884765625 365.6578979492188 155.0301208496094 375.43603515625 C 132.3569183349609 384.9556274414062 109.8231811523438 393.3683166503906 88.05484771728516 400.4400939941406 C 66.29371643066406 407.5096435546875 45.98231506347656 413.0169067382812 27.68498229980469 416.808837890625 C 8.928648948669434 420.6958923339844 -7.178684234619141 422.6667785644531 -20.18961715698242 422.6667785644531 Z" stroke="none"/>
      <path d="M 193.5000152587891 2.999969482421875 C 180.5672912597656 2.999969482421875 167.6435546875 4.265655517578125 155.0880126953125 6.76190185546875 C 142.8538208007812 9.194183349609375 130.8202209472656 12.82345581054688 119.3213500976562 17.54876708984375 C 108.0320129394531 22.18804931640625 97.14361572265625 27.93011474609375 86.95848083496094 34.61544799804688 C 76.87101745605469 41.23663330078125 67.38548278808594 48.8404541015625 58.76535034179688 57.215576171875 C 50.14675903320312 65.5892333984375 42.32241821289062 74.80270385742188 35.50981140136719 84.60009765625 C 28.633544921875 94.48898315429688 22.72789001464844 105.0599670410156 17.95687866210938 116.0193786621094 C 13.09855651855469 127.1791687011719 9.367355346679688 138.8574523925781 6.8668212890625 150.7297058105469 C 4.301025390625 162.9122314453125 3.000030517578125 175.4517669677734 3.000030517578125 187.9999694824219 C 3.000030517578125 229.5329132080078 -16.83837890625 275.130859375 -34.34146118164062 315.3611145019531 C -43.30850219726562 335.9716491699219 -51.7783203125 355.4392395019531 -56.36105346679688 371.7495727539062 C -58.76190185546875 380.29443359375 -59.94003295898438 387.3669128417969 -59.962646484375 393.37109375 C -59.97445678710938 396.4972534179688 -59.66119384765625 399.3644409179688 -59.03158569335938 401.8930969238281 C -58.39459228515625 404.4511108398438 -57.40878295898438 406.7594299316406 -56.1014404296875 408.7539672851562 C -54.83596801757812 410.6845092773438 -53.21505737304688 412.4037170410156 -51.28366088867188 413.8639221191406 C -49.24539184570312 415.40478515625 -46.7840576171875 416.7178344726562 -43.96798706054688 417.7664489746094 C -40.99758911132812 418.87255859375 -37.54110717773438 419.71923828125 -33.694580078125 420.2828369140625 C -29.69204711914062 420.8692932128906 -25.1483154296875 421.1667175292969 -20.18963623046875 421.1667175292969 C -7.28070068359375 421.1667175292969 8.724151611328125 419.206298828125 27.38055419921875 415.3399658203125 C 45.62442016601562 411.5591125488281 65.88221740722656 406.0661010742188 87.59141540527344 399.013427734375 C 109.3202209472656 391.9544372558594 131.8145446777344 383.5565185546875 154.4494171142578 374.0529174804688 C 177.7002258300781 364.2907104492188 200.4593505859375 353.6272583007812 222.0945434570312 342.3587036132812 C 244.7843475341797 330.5408325195312 265.8446960449219 318.256591796875 284.690673828125 305.8472290039062 C 304.6981506347656 292.6730346679688 322.0926818847656 279.4281005859375 336.3911437988281 266.4803771972656 C 351.6101684570312 252.6990356445312 363.3681030273438 239.2057037353516 371.3385009765625 226.3751678466797 C 375.4826965332031 219.7038421630859 378.6509399414062 213.1223754882812 380.7552795410156 206.8135681152344 C 382.9083557128906 200.3587036132812 384 194.0289001464844 384 187.9999694824219 C 384 175.4517669677734 382.6990356445312 162.9122314453125 380.1332092285156 150.7297058105469 C 377.6326904296875 138.8574523925781 373.9014892578125 127.1791687011719 369.0431518554688 116.0193786621094 C 364.2721557617188 105.0599670410156 358.3664245605469 94.48898315429688 351.490234375 84.60009765625 C 344.6775512695312 74.80270385742188 336.853271484375 65.5892333984375 328.234619140625 57.215576171875 C 319.614501953125 48.8404541015625 310.1289672851562 41.23663330078125 300.0414733886719 34.61544799804688 C 289.8564147949219 27.93011474609375 278.9679565429688 22.18804931640625 267.6786193847656 17.54876708984375 C 256.1798095703125 12.82345581054688 244.1462249755859 9.194183349609375 231.9120178222656 6.76190185546875 C 219.3564147949219 4.265655517578125 206.4327545166016 2.999969482421875 193.5000152587891 2.999969482421875 M 193.5000152587891 -3.0517578125e-05 C 300.3670959472656 -3.0517578125e-05 387 84.17044067382812 387 187.9999694824219 C 387 291.8295288085938 86.677490234375 424.1667175292969 -20.18963623046875 424.1667175292969 C -127.0567016601562 424.1667175292969 3.0517578125e-05 291.8295288085938 3.0517578125e-05 187.9999694824219 C 3.0517578125e-05 84.17044067382812 86.63288879394531 -3.0517578125e-05 193.5000152587891 -3.0517578125e-05 Z" stroke="none" fill="#157435"/>
    </g>
  </g>
</svg>
